# xmcd
#
# Track frame offsets:
#       150
#       12398
#       29061
#       46839
#
# Disc length: 814 seconds
#
# Revision: 0
# Processed by: cddbd v1.5.2PL0 Copyright (c) Steve Scherf et al.
# Submitted via: WaveLab 6.11
#
DISCID=2c032c04
DTITLE=The Gary Harper Band - Something Out Of Nothing
DYEAR=1900
DGENRE=
TTITLE0=Something Out Of Nothing
TTITLE1=I Always Knew
TTITLE2=Hard Act To Follow
TTITLE3=The Unfortunate One
EXTD=
EXTT0=
EXTT1=
EXTT2=
EXTT3=
PLAYORDER=
